# xmcd
#
# Track frame offsets:
#	150
#	15782
#	26292
#	39148
#	55340
#	68028
#	83815
#	97723
#	110388
#	124365
#	137446
#	151461
#
# Disc length: 2231 seconds
#
# Revision: 0
# Processed by: cddbd v1.5.1PL0 Copyright (c) Steve Scherf et al.
# Submitted via: audiograbber 1.83.01
#
DISCID=8108b50c
DTITLE=Delia Bell - Bluer Than Midnight
DYEAR=1900
DGENRE=
TTITLE0=Bluer Than Midnight
TTITLE1=God Gave You to Me
TTITLE2=My Kentucky Mountain Home
TTITLE3=Heartless
TTITLE4=I Want to Be Loved
TTITLE5=A Broken Heart, A Wedding Band
TTITLE6=The Dirt That You Throw
TTITLE7=Roses in the Snow
TTITLE8=Come Walk with Me
TTITLE9=Oklahoma Bluegrass Band
TTITLE10=My Last Request
TTITLE11=Come Back and Get These Memories
EXTD=
EXTT0=
EXTT1=
EXTT2=
EXTT3=
EXTT4=
EXTT5=
EXTT6=
EXTT7=
EXTT8=
EXTT9=
EXTT10=
EXTT11=
PLAYORDER=
